# xmcd
#
# Track frame offsets:
#	150
#	17085
#	33650
#	45557
#	58687
#	72945
#	88607
#	102305
#	116154
#	133777
#	146535
#	162620
#	175984
#	188850
#	204940
#	218870
#	234947
#	251087
#
# Disc length: 3594 seconds
#
# Revision: 1
# Processed by: cddbd v1.5.2PL0 Copyright (c) Steve Scherf et al.
# Submitted via: dBpowerAMP V4.0
#
DISCID=0a0e0812
DTITLE=Country Dance Kings - The country dance 11 kings
DYEAR=1998
DGENRE=Country
TTITLE0=Two pina coladas
TTITLE1=Here comes the rain
TTITLE2=Little bitty
TTITLE3=Perfect love
TTITLE4=Somebody slap me
TTITLE5=You've got to talk to me
TTITLE6=The fear of being alone
TTITLE7=A little  more love
TTITLE8=There goes
TTITLE9=Redneck rythm and blues
TTITLE10=A broken wing
TTITLE11=Any minute now
TTITLE12=Then what
TTITLE13=Just between you and me
TTITLE14=What if l do
TTITLE15=If i never stop loving you
TTITLE16=Don't be stupid
TTITLE17=Closer to heaven
EXTD=
EXTT0=
EXTT1=
EXTT2=
EXTT3=
EXTT4=
EXTT5=
EXTT6=
EXTT7=
EXTT8=
EXTT9=
EXTT10=
EXTT11=
EXTT12=
EXTT13=
EXTT14=
EXTT15=
EXTT16=
EXTT17=
PLAYORDER=
